<svg width="626" height="376" viewBox="0 0 626 376" fill="none" xmlns="http://www.w3.org/2000/svg">
<circle cx="188" cy="188" r="184" fill="#67B3DD" fill-opacity="0.5" stroke="#67B3DD" stroke-width="8"/>
<circle cx="438" cy="188" r="184" fill="#F1B823" fill-opacity="0.5" stroke="#F1B823" stroke-width="8"/>
<path d="M40.0085 181V160.636H43.6974V169.257H53.1335V160.636H56.8324V181H53.1335V172.349H43.6974V181H40.0085ZM69.5797 174.577V165.727H73.1792V181H69.6891V178.286H69.53C69.1853 179.141 68.6186 179.84 67.8297 180.384C67.0475 180.927 66.0831 181.199 64.9363 181.199C63.9353 181.199 63.0504 180.977 62.2814 180.533C61.5191 180.082 60.9225 179.429 60.4917 178.574C60.0608 177.712 59.8454 176.671 59.8454 175.452V165.727H63.4448V174.895C63.4448 175.863 63.71 176.632 64.2403 177.202C64.7706 177.772 65.4666 178.057 66.3283 178.057C66.8586 178.057 67.3724 177.928 67.8695 177.669C68.3667 177.411 68.7743 177.026 69.0925 176.516C69.4173 175.999 69.5797 175.352 69.5797 174.577ZM76.0405 181V165.727H79.4809V168.322H79.6598C79.978 167.447 80.505 166.765 81.2408 166.274C81.9766 165.777 82.8549 165.528 83.8758 165.528C84.9098 165.528 85.7815 165.78 86.4908 166.284C87.2067 166.781 87.7105 167.461 88.0022 168.322H88.1613C88.4993 167.474 89.0694 166.798 89.8715 166.294C90.6802 165.784 91.6381 165.528 92.7451 165.528C94.1504 165.528 95.2972 165.973 96.1854 166.861C97.0737 167.749 97.5178 169.045 97.5178 170.749V181H93.9084V171.305C93.9084 170.357 93.6565 169.665 93.1527 169.227C92.649 168.783 92.0325 168.561 91.3033 168.561C90.4349 168.561 89.7555 168.833 89.265 169.376C88.7811 169.913 88.5391 170.613 88.5391 171.474V181H85.0093V171.156C85.0093 170.367 84.7706 169.738 84.2934 169.267C83.8227 168.796 83.2062 168.561 82.4439 168.561C81.9269 168.561 81.4562 168.694 81.032 168.959C80.6078 169.217 80.2697 169.585 80.0178 170.062C79.7659 170.533 79.64 171.083 79.64 171.713V181H76.0405ZM104.724 181.308C103.757 181.308 102.885 181.136 102.109 180.791C101.34 180.44 100.73 179.923 100.28 179.24C99.8356 178.557 99.6135 177.715 99.6135 176.714C99.6135 175.853 99.7726 175.14 100.091 174.577C100.409 174.013 100.843 173.562 101.393 173.224C101.944 172.886 102.563 172.631 103.253 172.459C103.949 172.28 104.668 172.151 105.41 172.071C106.305 171.978 107.031 171.895 107.588 171.822C108.145 171.743 108.549 171.624 108.801 171.464C109.06 171.299 109.189 171.044 109.189 170.699V170.639C109.189 169.89 108.967 169.31 108.523 168.899C108.078 168.488 107.439 168.283 106.604 168.283C105.722 168.283 105.023 168.475 104.506 168.859C103.995 169.244 103.65 169.698 103.471 170.222L100.111 169.744C100.376 168.816 100.813 168.041 101.423 167.418C102.033 166.788 102.779 166.317 103.66 166.006C104.542 165.688 105.516 165.528 106.584 165.528C107.319 165.528 108.052 165.615 108.781 165.787C109.51 165.959 110.176 166.244 110.78 166.642C111.383 167.033 111.867 167.567 112.231 168.243C112.603 168.919 112.788 169.764 112.788 170.778V181H109.328V178.902H109.209C108.99 179.326 108.682 179.724 108.284 180.095C107.893 180.46 107.399 180.755 106.802 180.98C106.212 181.199 105.52 181.308 104.724 181.308ZM105.659 178.663C106.382 178.663 107.008 178.521 107.538 178.236C108.069 177.944 108.476 177.56 108.761 177.082C109.053 176.605 109.199 176.085 109.199 175.521V173.722C109.086 173.814 108.894 173.901 108.622 173.98C108.357 174.06 108.059 174.129 107.727 174.189C107.396 174.249 107.068 174.302 106.743 174.348C106.418 174.394 106.136 174.434 105.898 174.467C105.361 174.54 104.88 174.66 104.456 174.825C104.032 174.991 103.697 175.223 103.452 175.521C103.206 175.813 103.084 176.191 103.084 176.655C103.084 177.318 103.326 177.818 103.81 178.156C104.293 178.494 104.91 178.663 105.659 178.663ZM119.167 172.051V181H115.568V165.727H119.008V168.322H119.187C119.538 167.467 120.098 166.788 120.867 166.284C121.643 165.78 122.601 165.528 123.741 165.528C124.795 165.528 125.713 165.754 126.495 166.205C127.284 166.655 127.894 167.308 128.325 168.163C128.762 169.018 128.978 170.056 128.971 171.276V181H125.372V171.832C125.372 170.812 125.106 170.013 124.576 169.436C124.052 168.859 123.327 168.571 122.399 168.571C121.769 168.571 121.209 168.71 120.718 168.989C120.234 169.26 119.853 169.655 119.575 170.172C119.303 170.689 119.167 171.315 119.167 172.051ZM40.0085 215V194.636H53.2528V197.729H43.6974V203.257H52.5668V206.349H43.6974V211.908H53.3324V215H40.0085ZM58.9604 199.727L62.0428 205.365L65.1749 199.727H68.9832L64.3795 207.364L69.0627 215H65.2743L62.0428 209.501L58.8411 215H55.0229L59.6763 207.364L55.1422 199.727H58.9604ZM70.9272 220.727V199.727H74.467V202.253H74.6758C74.8614 201.882 75.1233 201.487 75.4613 201.07C75.7994 200.645 76.2568 200.284 76.8335 199.986C77.4102 199.681 78.146 199.528 79.0409 199.528C80.2208 199.528 81.2847 199.83 82.2326 200.433C83.1872 201.03 83.9429 201.915 84.4997 203.088C85.0631 204.255 85.3449 205.687 85.3449 207.384C85.3449 209.061 85.0698 210.486 84.5196 211.659C83.9694 212.832 83.2203 213.727 82.2724 214.344C81.3245 214.96 80.2506 215.268 79.0508 215.268C78.1758 215.268 77.45 215.123 76.8733 214.831C76.2966 214.539 75.8325 214.188 75.4812 213.777C75.1365 213.359 74.8681 212.965 74.6758 212.594H74.5267V220.727H70.9272ZM74.4571 207.364C74.4571 208.351 74.5963 209.216 74.8747 209.959C75.1597 210.701 75.5674 211.281 76.0977 211.699C76.6346 212.11 77.2843 212.315 78.0466 212.315C78.842 212.315 79.5082 212.103 80.0451 211.679C80.5821 211.248 80.9864 210.661 81.2582 209.919C81.5366 209.17 81.6758 208.318 81.6758 207.364C81.6758 206.416 81.5399 205.574 81.2682 204.838C80.9964 204.102 80.592 203.526 80.0551 203.108C79.5182 202.69 78.8486 202.482 78.0466 202.482C77.2776 202.482 76.6247 202.684 76.0878 203.088C75.5508 203.492 75.1432 204.059 74.8647 204.788C74.593 205.518 74.4571 206.376 74.4571 207.364ZM94.3486 215.298C92.8174 215.298 91.4949 214.98 90.3813 214.344C89.2743 213.701 88.4225 212.793 87.8259 211.619C87.2293 210.439 86.931 209.051 86.931 207.453C86.931 205.882 87.2293 204.503 87.8259 203.317C88.4291 202.124 89.271 201.196 90.3514 200.533C91.4319 199.863 92.7014 199.528 94.1597 199.528C95.101 199.528 95.9892 199.681 96.8245 199.986C97.6663 200.284 98.4087 200.748 99.0517 201.378C99.7014 202.008 100.212 202.81 100.583 203.784C100.954 204.752 101.14 205.905 101.14 207.244V208.348H88.6213V205.922H97.6895C97.6829 205.232 97.5337 204.619 97.2421 204.082C96.9504 203.539 96.5427 203.111 96.0191 202.8C95.502 202.488 94.8988 202.332 94.2094 202.332C93.4736 202.332 92.8273 202.511 92.2705 202.869C91.7137 203.221 91.2795 203.685 90.9679 204.261C90.663 204.831 90.5072 205.458 90.5006 206.141V208.259C90.5006 209.147 90.663 209.909 90.9878 210.545C91.3126 211.175 91.7667 211.659 92.35 211.997C92.9334 212.329 93.6161 212.494 94.3983 212.494C94.922 212.494 95.396 212.421 95.8202 212.276C96.2444 212.123 96.6123 211.901 96.9239 211.609C97.2354 211.318 97.4708 210.956 97.6299 210.526L100.991 210.903C100.779 211.792 100.374 212.567 99.7776 213.23C99.1876 213.886 98.4319 214.397 97.5105 214.761C96.5891 215.119 95.5352 215.298 94.3486 215.298ZM103.345 215V199.727H106.835V202.273H106.994C107.272 201.391 107.75 200.712 108.426 200.234C109.109 199.75 109.888 199.509 110.763 199.509C110.961 199.509 111.183 199.518 111.429 199.538C111.681 199.552 111.889 199.575 112.055 199.608V202.919C111.903 202.866 111.661 202.82 111.329 202.78C111.004 202.733 110.69 202.71 110.385 202.71C109.728 202.71 109.138 202.853 108.615 203.138C108.098 203.416 107.69 203.804 107.392 204.301C107.093 204.798 106.944 205.372 106.944 206.021V215H103.345ZM113.606 215V199.727H117.206V215H113.606ZM115.416 197.56C114.846 197.56 114.356 197.371 113.945 196.993C113.534 196.608 113.328 196.148 113.328 195.611C113.328 195.067 113.534 194.607 113.945 194.229C114.356 193.844 114.846 193.652 115.416 193.652C115.993 193.652 116.483 193.844 116.888 194.229C117.299 194.607 117.504 195.067 117.504 195.611C117.504 196.148 117.299 196.608 116.888 196.993C116.483 197.371 115.993 197.56 115.416 197.56ZM126.829 215.298C125.297 215.298 123.975 214.98 122.861 214.344C121.754 213.701 120.902 212.793 120.306 211.619C119.709 210.439 119.411 209.051 119.411 207.453C119.411 205.882 119.709 204.503 120.306 203.317C120.909 202.124 121.751 201.196 122.831 200.533C123.912 199.863 125.181 199.528 126.64 199.528C127.581 199.528 128.469 199.681 129.304 199.986C130.146 200.284 130.889 200.748 131.532 201.378C132.181 202.008 132.692 202.81 133.063 203.784C133.434 204.752 133.62 205.905 133.62 207.244V208.348H121.101V205.922H130.17C130.163 205.232 130.014 204.619 129.722 204.082C129.43 203.539 129.023 203.111 128.499 202.8C127.982 202.488 127.379 202.332 126.689 202.332C125.954 202.332 125.307 202.511 124.75 202.869C124.194 203.221 123.759 203.685 123.448 204.261C123.143 204.831 122.987 205.458 122.981 206.141V208.259C122.981 209.147 123.143 209.909 123.468 210.545C123.793 211.175 124.247 211.659 124.83 211.997C125.413 212.329 126.096 212.494 126.878 212.494C127.402 212.494 127.876 212.421 128.3 212.276C128.724 212.123 129.092 211.901 129.404 211.609C129.715 211.318 129.951 210.956 130.11 210.526L133.471 210.903C133.259 211.792 132.854 212.567 132.258 213.23C131.668 213.886 130.912 214.397 129.991 214.761C129.069 215.119 128.015 215.298 126.829 215.298ZM139.424 206.051V215H135.825V199.727H139.265V202.322H139.444C139.796 201.467 140.356 200.788 141.125 200.284C141.9 199.78 142.858 199.528 143.998 199.528C145.052 199.528 145.97 199.754 146.752 200.205C147.541 200.655 148.151 201.308 148.582 202.163C149.02 203.018 149.235 204.056 149.228 205.276V215H145.629V205.832C145.629 204.812 145.364 204.013 144.833 203.436C144.31 202.859 143.584 202.571 142.656 202.571C142.026 202.571 141.466 202.71 140.975 202.989C140.492 203.26 140.11 203.655 139.832 204.172C139.56 204.689 139.424 205.315 139.424 206.051ZM158.709 215.298C157.185 215.298 155.876 214.964 154.782 214.294C153.695 213.625 152.856 212.7 152.266 211.52C151.683 210.333 151.391 208.968 151.391 207.423C151.391 205.872 151.689 204.503 152.286 203.317C152.883 202.124 153.724 201.196 154.812 200.533C155.905 199.863 157.198 199.528 158.689 199.528C159.929 199.528 161.026 199.757 161.981 200.214C162.942 200.665 163.707 201.305 164.278 202.134C164.848 202.955 165.172 203.917 165.252 205.017H161.812C161.672 204.281 161.341 203.668 160.817 203.178C160.3 202.68 159.608 202.432 158.739 202.432C158.003 202.432 157.357 202.631 156.8 203.028C156.243 203.42 155.809 203.983 155.498 204.719C155.193 205.455 155.04 206.336 155.04 207.364C155.04 208.404 155.193 209.299 155.498 210.048C155.803 210.791 156.23 211.364 156.78 211.768C157.337 212.166 157.99 212.365 158.739 212.365C159.269 212.365 159.743 212.266 160.161 212.067C160.585 211.861 160.94 211.566 161.225 211.182C161.51 210.797 161.706 210.33 161.812 209.78H165.252C165.166 210.86 164.848 211.818 164.297 212.653C163.747 213.482 162.998 214.132 162.05 214.602C161.102 215.066 159.989 215.298 158.709 215.298ZM174.129 215.298C172.598 215.298 171.275 214.98 170.162 214.344C169.055 213.701 168.203 212.793 167.606 211.619C167.01 210.439 166.711 209.051 166.711 207.453C166.711 205.882 167.01 204.503 167.606 203.317C168.209 202.124 169.051 201.196 170.132 200.533C171.212 199.863 172.482 199.528 173.94 199.528C174.881 199.528 175.77 199.681 176.605 199.986C177.447 200.284 178.189 200.748 178.832 201.378C179.482 202.008 179.992 202.81 180.363 203.784C180.735 204.752 180.92 205.905 180.92 207.244V208.348H168.402V205.922H177.47C177.463 205.232 177.314 204.619 177.022 204.082C176.731 203.539 176.323 203.111 175.799 202.8C175.282 202.488 174.679 202.332 173.99 202.332C173.254 202.332 172.608 202.511 172.051 202.869C171.494 203.221 171.06 203.685 170.748 204.261C170.443 204.831 170.288 205.458 170.281 206.141V208.259C170.281 209.147 170.443 209.909 170.768 210.545C171.093 211.175 171.547 211.659 172.13 211.997C172.714 212.329 173.396 212.494 174.179 212.494C174.702 212.494 175.176 212.421 175.601 212.276C176.025 212.123 176.393 211.901 176.704 211.609C177.016 211.318 177.251 210.956 177.41 210.526L180.771 210.903C180.559 211.792 180.154 212.567 179.558 213.23C178.968 213.886 178.212 214.397 177.291 214.761C176.369 215.119 175.315 215.298 174.129 215.298Z" fill="black"/>
<path d="M415.247 181H411.309L418.478 160.636H423.032L430.211 181H426.274L420.835 164.812H420.676L415.247 181ZM415.376 173.016H426.115V175.979H415.376V173.016ZM431.894 181V165.727H435.384V168.273H435.544C435.822 167.391 436.299 166.712 436.975 166.234C437.658 165.75 438.437 165.509 439.312 165.509C439.511 165.509 439.733 165.518 439.978 165.538C440.23 165.552 440.439 165.575 440.605 165.608V168.919C440.452 168.866 440.21 168.82 439.879 168.78C439.554 168.733 439.239 168.71 438.934 168.71C438.278 168.71 437.688 168.853 437.164 169.138C436.647 169.416 436.24 169.804 435.941 170.301C435.643 170.798 435.494 171.372 435.494 172.021V181H431.894ZM450.603 165.727V168.511H441.823V165.727H450.603ZM443.991 162.068H447.59V176.406C447.59 176.89 447.663 177.261 447.809 177.52C447.961 177.772 448.16 177.944 448.405 178.037C448.651 178.13 448.922 178.176 449.221 178.176C449.446 178.176 449.651 178.16 449.837 178.126C450.029 178.093 450.175 178.063 450.275 178.037L450.881 180.851C450.689 180.917 450.414 180.99 450.056 181.07C449.705 181.149 449.274 181.196 448.763 181.209C447.862 181.235 447.05 181.099 446.327 180.801C445.605 180.496 445.031 180.026 444.607 179.389C444.189 178.753 443.984 177.957 443.991 177.003V162.068ZM452.773 181V165.727H456.372V181H452.773ZM454.583 163.56C454.013 163.56 453.522 163.371 453.111 162.993C452.7 162.608 452.495 162.148 452.495 161.611C452.495 161.067 452.7 160.607 453.111 160.229C453.522 159.844 454.013 159.652 454.583 159.652C455.159 159.652 455.65 159.844 456.054 160.229C456.465 160.607 456.671 161.067 456.671 161.611C456.671 162.148 456.465 162.608 456.054 162.993C455.65 163.371 455.159 163.56 454.583 163.56ZM466.97 165.727V168.511H457.941V165.727H466.97ZM460.198 181V164.286C460.198 163.258 460.41 162.403 460.835 161.72C461.266 161.037 461.842 160.527 462.565 160.189C463.287 159.851 464.089 159.682 464.971 159.682C465.594 159.682 466.148 159.732 466.632 159.831C467.115 159.93 467.473 160.02 467.705 160.099L466.989 162.884C466.837 162.837 466.645 162.791 466.413 162.744C466.181 162.691 465.922 162.665 465.637 162.665C464.968 162.665 464.494 162.827 464.215 163.152C463.944 163.47 463.808 163.928 463.808 164.524V181H460.198ZM468.948 181V165.727H472.548V181H468.948ZM470.758 163.56C470.188 163.56 469.698 163.371 469.287 162.993C468.876 162.608 468.67 162.148 468.67 161.611C468.67 161.067 468.876 160.607 469.287 160.229C469.698 159.844 470.188 159.652 470.758 159.652C471.335 159.652 471.825 159.844 472.23 160.229C472.641 160.607 472.846 161.067 472.846 161.611C472.846 162.148 472.641 162.608 472.23 162.993C471.825 163.371 471.335 163.56 470.758 163.56ZM482.071 181.298C480.547 181.298 479.237 180.964 478.144 180.294C477.057 179.625 476.218 178.7 475.628 177.52C475.045 176.333 474.753 174.968 474.753 173.423C474.753 171.872 475.051 170.503 475.648 169.317C476.244 168.124 477.086 167.196 478.173 166.533C479.267 165.863 480.56 165.528 482.051 165.528C483.291 165.528 484.388 165.757 485.343 166.214C486.304 166.665 487.069 167.305 487.639 168.134C488.209 168.955 488.534 169.917 488.614 171.017H485.173C485.034 170.281 484.703 169.668 484.179 169.178C483.662 168.68 482.969 168.432 482.101 168.432C481.365 168.432 480.719 168.631 480.162 169.028C479.605 169.42 479.171 169.983 478.86 170.719C478.555 171.455 478.402 172.336 478.402 173.364C478.402 174.404 478.555 175.299 478.86 176.048C479.164 176.791 479.592 177.364 480.142 177.768C480.699 178.166 481.352 178.365 482.101 178.365C482.631 178.365 483.105 178.266 483.523 178.067C483.947 177.861 484.302 177.566 484.587 177.182C484.872 176.797 485.067 176.33 485.173 175.78H488.614C488.528 176.86 488.209 177.818 487.659 178.653C487.109 179.482 486.36 180.132 485.412 180.602C484.464 181.066 483.351 181.298 482.071 181.298ZM490.729 181V165.727H494.329V181H490.729ZM492.539 163.56C491.969 163.56 491.478 163.371 491.067 162.993C490.657 162.608 490.451 162.148 490.451 161.611C490.451 161.067 490.657 160.607 491.067 160.229C491.478 159.844 491.969 159.652 492.539 159.652C493.116 159.652 493.606 159.844 494.011 160.229C494.422 160.607 494.627 161.067 494.627 161.611C494.627 162.148 494.422 162.608 494.011 162.993C493.606 163.371 493.116 163.56 492.539 163.56ZM501.585 181.308C500.617 181.308 499.746 181.136 498.97 180.791C498.201 180.44 497.591 179.923 497.14 179.24C496.696 178.557 496.474 177.715 496.474 176.714C496.474 175.853 496.633 175.14 496.952 174.577C497.27 174.013 497.704 173.562 498.254 173.224C498.804 172.886 499.424 172.631 500.114 172.459C500.81 172.28 501.529 172.151 502.271 172.071C503.166 171.978 503.892 171.895 504.449 171.822C505.006 171.743 505.41 171.624 505.662 171.464C505.92 171.299 506.05 171.044 506.05 170.699V170.639C506.05 169.89 505.828 169.31 505.383 168.899C504.939 168.488 504.3 168.283 503.464 168.283C502.583 168.283 501.883 168.475 501.366 168.859C500.856 169.244 500.511 169.698 500.332 170.222L496.971 169.744C497.237 168.816 497.674 168.041 498.284 167.418C498.894 166.788 499.64 166.317 500.521 166.006C501.403 165.688 502.377 165.528 503.444 165.528C504.18 165.528 504.913 165.615 505.642 165.787C506.371 165.959 507.037 166.244 507.64 166.642C508.244 167.033 508.728 167.567 509.092 168.243C509.463 168.919 509.649 169.764 509.649 170.778V181H506.189V178.902H506.069C505.851 179.326 505.542 179.724 505.145 180.095C504.754 180.46 504.26 180.755 503.663 180.98C503.073 181.199 502.381 181.308 501.585 181.308ZM502.52 178.663C503.242 178.663 503.869 178.521 504.399 178.236C504.929 177.944 505.337 177.56 505.622 177.082C505.914 176.605 506.06 176.085 506.06 175.521V173.722C505.947 173.814 505.755 173.901 505.483 173.98C505.218 174.06 504.919 174.129 504.588 174.189C504.256 174.249 503.928 174.302 503.604 174.348C503.279 174.394 502.997 174.434 502.758 174.467C502.221 174.54 501.741 174.66 501.317 174.825C500.892 174.991 500.558 175.223 500.312 175.521C500.067 175.813 499.944 176.191 499.944 176.655C499.944 177.318 500.186 177.818 500.67 178.156C501.154 178.494 501.771 178.663 502.52 178.663ZM516.028 160.636V181H512.428V160.636H516.028ZM525.154 160.636H529.668L535.713 175.392H535.952L541.997 160.636H546.511V181H542.972V167.01H542.783L537.155 180.94H534.51L528.882 166.98H528.693V181H525.154V160.636ZM549.529 181V165.727H553.129V181H549.529ZM551.339 163.56C550.769 163.56 550.278 163.371 549.867 162.993C549.457 162.608 549.251 162.148 549.251 161.611C549.251 161.067 549.457 160.607 549.867 160.229C550.278 159.844 550.769 159.652 551.339 159.652C551.916 159.652 552.406 159.844 552.811 160.229C553.222 160.607 553.427 161.067 553.427 161.611C553.427 162.148 553.222 162.608 552.811 162.993C552.406 163.371 551.916 163.56 551.339 163.56ZM559.59 172.051V181H555.99V165.727H559.431V168.322H559.61C559.961 167.467 560.521 166.788 561.29 166.284C562.065 165.78 563.023 165.528 564.164 165.528C565.217 165.528 566.136 165.754 566.918 166.205C567.707 166.655 568.316 167.308 568.747 168.163C569.185 169.018 569.4 170.056 569.394 171.276V181H565.794V171.832C565.794 170.812 565.529 170.013 564.999 169.436C564.475 168.859 563.749 168.571 562.821 168.571C562.191 168.571 561.631 168.71 561.141 168.989C560.657 169.26 560.276 169.655 559.997 170.172C559.726 170.689 559.59 171.315 559.59 172.051ZM577.88 181.268C576.681 181.268 575.607 180.96 574.659 180.344C573.711 179.727 572.962 178.832 572.412 177.659C571.861 176.486 571.586 175.061 571.586 173.384C571.586 171.687 571.865 170.255 572.422 169.088C572.985 167.915 573.744 167.03 574.699 166.433C575.653 165.83 576.717 165.528 577.89 165.528C578.785 165.528 579.521 165.681 580.098 165.986C580.674 166.284 581.132 166.645 581.47 167.07C581.808 167.487 582.07 167.882 582.255 168.253H582.404V160.636H586.014V181H582.474V178.594H582.255C582.07 178.965 581.801 179.359 581.45 179.777C581.099 180.188 580.635 180.539 580.058 180.831C579.481 181.123 578.755 181.268 577.88 181.268ZM578.885 178.315C579.647 178.315 580.297 178.11 580.833 177.699C581.37 177.281 581.778 176.701 582.056 175.959C582.335 175.216 582.474 174.351 582.474 173.364C582.474 172.376 582.335 171.518 582.056 170.788C581.785 170.059 581.38 169.492 580.843 169.088C580.313 168.684 579.66 168.482 578.885 168.482C578.083 168.482 577.413 168.69 576.876 169.108C576.339 169.526 575.935 170.102 575.663 170.838C575.391 171.574 575.255 172.416 575.255 173.364C575.255 174.318 575.391 175.17 575.663 175.919C575.941 176.661 576.349 177.248 576.886 177.679C577.43 178.103 578.096 178.315 578.885 178.315ZM445.893 215V194.636H459.137V197.729H449.582V203.257H458.451V206.349H449.582V211.908H459.217V215H445.893ZM464.845 199.727L467.927 205.365L471.059 199.727H474.867L470.264 207.364L474.947 215H471.159L467.927 209.501L464.725 215H460.907L465.561 207.364L461.026 199.727H464.845ZM476.811 220.727V199.727H480.351V202.253H480.56C480.746 201.882 481.007 201.487 481.346 201.07C481.684 200.645 482.141 200.284 482.718 199.986C483.294 199.681 484.03 199.528 484.925 199.528C486.105 199.528 487.169 199.83 488.117 200.433C489.071 201.03 489.827 201.915 490.384 203.088C490.947 204.255 491.229 205.687 491.229 207.384C491.229 209.061 490.954 210.486 490.404 211.659C489.854 212.832 489.105 213.727 488.157 214.344C487.209 214.96 486.135 215.268 484.935 215.268C484.06 215.268 483.334 215.123 482.757 214.831C482.181 214.539 481.717 214.188 481.365 213.777C481.021 213.359 480.752 212.965 480.56 212.594H480.411V220.727H476.811ZM480.341 207.364C480.341 208.351 480.48 209.216 480.759 209.959C481.044 210.701 481.452 211.281 481.982 211.699C482.519 212.11 483.168 212.315 483.931 212.315C484.726 212.315 485.392 212.103 485.929 211.679C486.466 211.248 486.871 210.661 487.142 209.919C487.421 209.17 487.56 208.318 487.56 207.364C487.56 206.416 487.424 205.574 487.152 204.838C486.881 204.102 486.476 203.526 485.939 203.108C485.402 202.69 484.733 202.482 483.931 202.482C483.162 202.482 482.509 202.684 481.972 203.088C481.435 203.492 481.027 204.059 480.749 204.788C480.477 205.518 480.341 206.376 480.341 207.364ZM500.233 215.298C498.702 215.298 497.379 214.98 496.265 214.344C495.158 213.701 494.307 212.793 493.71 211.619C493.114 210.439 492.815 209.051 492.815 207.453C492.815 205.882 493.114 204.503 493.71 203.317C494.313 202.124 495.155 201.196 496.236 200.533C497.316 199.863 498.586 199.528 500.044 199.528C500.985 199.528 501.873 199.681 502.709 199.986C503.551 200.284 504.293 200.748 504.936 201.378C505.586 202.008 506.096 202.81 506.467 203.784C506.838 204.752 507.024 205.905 507.024 207.244V208.348H494.506V205.922H503.574C503.567 205.232 503.418 204.619 503.126 204.082C502.835 203.539 502.427 203.111 501.903 202.8C501.386 202.488 500.783 202.332 500.094 202.332C499.358 202.332 498.712 202.511 498.155 202.869C497.598 203.221 497.164 203.685 496.852 204.261C496.547 204.831 496.391 205.458 496.385 206.141V208.259C496.385 209.147 496.547 209.909 496.872 210.545C497.197 211.175 497.651 211.659 498.234 211.997C498.818 212.329 499.5 212.494 500.283 212.494C500.806 212.494 501.28 212.421 501.704 212.276C502.129 212.123 502.497 211.901 502.808 211.609C503.12 211.318 503.355 210.956 503.514 210.526L506.875 210.903C506.663 211.792 506.258 212.567 505.662 213.23C505.072 213.886 504.316 214.397 503.395 214.761C502.473 215.119 501.419 215.298 500.233 215.298ZM509.229 215V199.727H512.719V202.273H512.878C513.157 201.391 513.634 200.712 514.31 200.234C514.993 199.75 515.772 199.509 516.647 199.509C516.846 199.509 517.068 199.518 517.313 199.538C517.565 199.552 517.774 199.575 517.939 199.608V202.919C517.787 202.866 517.545 202.82 517.213 202.78C516.889 202.733 516.574 202.71 516.269 202.71C515.613 202.71 515.023 202.853 514.499 203.138C513.982 203.416 513.574 203.804 513.276 204.301C512.978 204.798 512.829 205.372 512.829 206.021V215H509.229ZM519.491 215V199.727H523.09V215H519.491ZM521.3 197.56C520.73 197.56 520.24 197.371 519.829 196.993C519.418 196.608 519.212 196.148 519.212 195.611C519.212 195.067 519.418 194.607 519.829 194.229C520.24 193.844 520.73 193.652 521.3 193.652C521.877 193.652 522.368 193.844 522.772 194.229C523.183 194.607 523.388 195.067 523.388 195.611C523.388 196.148 523.183 196.608 522.772 196.993C522.368 197.371 521.877 197.56 521.3 197.56ZM532.713 215.298C531.182 215.298 529.859 214.98 528.745 214.344C527.638 213.701 526.787 212.793 526.19 211.619C525.594 210.439 525.295 209.051 525.295 207.453C525.295 205.882 525.594 204.503 526.19 203.317C526.793 202.124 527.635 201.196 528.716 200.533C529.796 199.863 531.066 199.528 532.524 199.528C533.465 199.528 534.353 199.681 535.189 199.986C536.031 200.284 536.773 200.748 537.416 201.378C538.066 202.008 538.576 202.81 538.947 203.784C539.318 204.752 539.504 205.905 539.504 207.244V208.348H526.986V205.922H536.054C536.047 205.232 535.898 204.619 535.606 204.082C535.315 203.539 534.907 203.111 534.383 202.8C533.866 202.488 533.263 202.332 532.574 202.332C531.838 202.332 531.192 202.511 530.635 202.869C530.078 203.221 529.644 203.685 529.332 204.261C529.027 204.831 528.871 205.458 528.865 206.141V208.259C528.865 209.147 529.027 209.909 529.352 210.545C529.677 211.175 530.131 211.659 530.714 211.997C531.298 212.329 531.98 212.494 532.763 212.494C533.286 212.494 533.76 212.421 534.184 212.276C534.609 212.123 534.977 211.901 535.288 211.609C535.6 211.318 535.835 210.956 535.994 210.526L539.355 210.903C539.143 211.792 538.738 212.567 538.142 213.23C537.552 213.886 536.796 214.397 535.875 214.761C534.953 215.119 533.899 215.298 532.713 215.298ZM545.309 206.051V215H541.709V199.727H545.149V202.322H545.328C545.68 201.467 546.24 200.788 547.009 200.284C547.784 199.78 548.742 199.528 549.882 199.528C550.936 199.528 551.854 199.754 552.637 200.205C553.425 200.655 554.035 201.308 554.466 202.163C554.904 203.018 555.119 204.056 555.113 205.276V215H551.513V205.832C551.513 204.812 551.248 204.013 550.718 203.436C550.194 202.859 549.468 202.571 548.54 202.571C547.91 202.571 547.35 202.71 546.86 202.989C546.376 203.26 545.995 203.655 545.716 204.172C545.444 204.689 545.309 205.315 545.309 206.051ZM564.594 215.298C563.069 215.298 561.76 214.964 560.666 214.294C559.579 213.625 558.74 212.7 558.15 211.52C557.567 210.333 557.275 208.968 557.275 207.423C557.275 205.872 557.574 204.503 558.17 203.317C558.767 202.124 559.609 201.196 560.696 200.533C561.79 199.863 563.082 199.528 564.574 199.528C565.813 199.528 566.91 199.757 567.865 200.214C568.826 200.665 569.592 201.305 570.162 202.134C570.732 202.955 571.057 203.917 571.136 205.017H567.696C567.557 204.281 567.225 203.668 566.702 203.178C566.184 202.68 565.492 202.432 564.623 202.432C563.888 202.432 563.241 202.631 562.684 203.028C562.128 203.42 561.693 203.983 561.382 204.719C561.077 205.455 560.925 206.336 560.925 207.364C560.925 208.404 561.077 209.299 561.382 210.048C561.687 210.791 562.114 211.364 562.665 211.768C563.221 212.166 563.874 212.365 564.623 212.365C565.154 212.365 565.628 212.266 566.045 212.067C566.469 211.861 566.824 211.566 567.109 211.182C567.394 210.797 567.59 210.33 567.696 209.78H571.136C571.05 210.86 570.732 211.818 570.182 212.653C569.631 213.482 568.882 214.132 567.934 214.602C566.987 215.066 565.873 215.298 564.594 215.298ZM580.013 215.298C578.482 215.298 577.159 214.98 576.046 214.344C574.939 213.701 574.087 212.793 573.49 211.619C572.894 210.439 572.596 209.051 572.596 207.453C572.596 205.882 572.894 204.503 573.49 203.317C574.094 202.124 574.935 201.196 576.016 200.533C577.096 199.863 578.366 199.528 579.824 199.528C580.766 199.528 581.654 199.681 582.489 199.986C583.331 200.284 584.073 200.748 584.716 201.378C585.366 202.008 585.876 202.81 586.248 203.784C586.619 204.752 586.804 205.905 586.804 207.244V208.348H574.286V205.922H583.354C583.347 205.232 583.198 204.619 582.907 204.082C582.615 203.539 582.207 203.111 581.684 202.8C581.167 202.488 580.563 202.332 579.874 202.332C579.138 202.332 578.492 202.511 577.935 202.869C577.378 203.221 576.944 203.685 576.632 204.261C576.328 204.831 576.172 205.458 576.165 206.141V208.259C576.165 209.147 576.328 209.909 576.652 210.545C576.977 211.175 577.431 211.659 578.015 211.997C578.598 212.329 579.281 212.494 580.063 212.494C580.587 212.494 581.06 212.421 581.485 212.276C581.909 212.123 582.277 211.901 582.588 211.609C582.9 211.318 583.135 210.956 583.294 210.526L586.655 210.903C586.443 211.792 586.039 212.567 585.442 213.23C584.852 213.886 584.096 214.397 583.175 214.761C582.254 215.119 581.2 215.298 580.013 215.298Z" fill="black"/>
<path d="M287.888 188.273C287.888 190.153 287.536 191.764 286.831 193.105C286.133 194.44 285.178 195.463 283.968 196.173C282.763 196.884 281.397 197.239 279.868 197.239C278.34 197.239 276.971 196.884 275.76 196.173C274.556 195.457 273.601 194.432 272.897 193.097C272.198 191.756 271.848 190.148 271.848 188.273C271.848 186.392 272.198 184.784 272.897 183.449C273.601 182.108 274.556 181.082 275.76 180.372C276.971 179.662 278.34 179.307 279.868 179.307C281.397 179.307 282.763 179.662 283.968 180.372C285.178 181.082 286.133 182.108 286.831 183.449C287.536 184.784 287.888 186.392 287.888 188.273ZM284.709 188.273C284.709 186.949 284.502 185.832 284.087 184.923C283.678 184.009 283.11 183.318 282.382 182.852C281.655 182.381 280.817 182.145 279.868 182.145C278.919 182.145 278.081 182.381 277.354 182.852C276.627 183.318 276.056 184.009 275.641 184.923C275.232 185.832 275.027 186.949 275.027 188.273C275.027 189.597 275.232 190.716 275.641 191.631C276.056 192.54 276.627 193.23 277.354 193.702C278.081 194.168 278.919 194.401 279.868 194.401C280.817 194.401 281.655 194.168 282.382 193.702C283.11 193.23 283.678 192.54 284.087 191.631C284.502 190.716 284.709 189.597 284.709 188.273ZM301.714 183.909L297.052 197H293.643L288.981 183.909H292.271L295.28 193.634H295.416L298.433 183.909H301.714ZM308.479 197.256C307.167 197.256 306.033 196.983 305.079 196.438C304.13 195.886 303.4 195.108 302.889 194.102C302.377 193.091 302.121 191.901 302.121 190.531C302.121 189.185 302.377 188.003 302.889 186.986C303.406 185.963 304.127 185.168 305.053 184.599C305.979 184.026 307.067 183.739 308.317 183.739C309.124 183.739 309.886 183.869 310.602 184.131C311.323 184.386 311.96 184.784 312.511 185.324C313.067 185.864 313.505 186.551 313.823 187.386C314.141 188.216 314.3 189.205 314.3 190.352V191.298H303.57V189.219H311.343C311.337 188.628 311.21 188.102 310.96 187.642C310.71 187.176 310.36 186.81 309.911 186.543C309.468 186.276 308.951 186.142 308.36 186.142C307.729 186.142 307.175 186.295 306.698 186.602C306.221 186.903 305.849 187.301 305.582 187.795C305.32 188.284 305.187 188.821 305.181 189.406V191.222C305.181 191.983 305.32 192.636 305.599 193.182C305.877 193.722 306.266 194.136 306.766 194.426C307.266 194.71 307.852 194.852 308.522 194.852C308.971 194.852 309.377 194.79 309.741 194.665C310.104 194.534 310.42 194.344 310.687 194.094C310.954 193.844 311.156 193.534 311.292 193.165L314.173 193.489C313.991 194.25 313.644 194.915 313.133 195.483C312.627 196.045 311.979 196.483 311.19 196.795C310.4 197.102 309.496 197.256 308.479 197.256ZM316.191 197V183.909H319.182V186.091H319.318C319.557 185.335 319.966 184.753 320.546 184.344C321.131 183.929 321.798 183.722 322.548 183.722C322.719 183.722 322.909 183.73 323.12 183.747C323.335 183.759 323.514 183.778 323.656 183.807V186.645C323.526 186.599 323.318 186.56 323.034 186.526C322.756 186.486 322.486 186.466 322.225 186.466C321.662 186.466 321.156 186.588 320.708 186.832C320.264 187.071 319.915 187.403 319.659 187.83C319.404 188.256 319.276 188.747 319.276 189.304V197H316.191ZM328.071 179.545V197H324.986V179.545H328.071ZM334.291 197.264C333.461 197.264 332.714 197.116 332.05 196.821C331.39 196.52 330.868 196.077 330.481 195.491C330.101 194.906 329.91 194.185 329.91 193.327C329.91 192.588 330.047 191.977 330.319 191.494C330.592 191.011 330.964 190.625 331.436 190.335C331.908 190.045 332.439 189.827 333.03 189.679C333.626 189.526 334.243 189.415 334.879 189.347C335.646 189.267 336.268 189.196 336.746 189.134C337.223 189.065 337.569 188.963 337.785 188.827C338.007 188.685 338.118 188.466 338.118 188.17V188.119C338.118 187.477 337.927 186.98 337.547 186.628C337.166 186.276 336.618 186.099 335.902 186.099C335.146 186.099 334.547 186.264 334.104 186.594C333.666 186.923 333.371 187.312 333.217 187.761L330.336 187.352C330.564 186.557 330.939 185.892 331.461 185.358C331.984 184.818 332.623 184.415 333.379 184.148C334.135 183.875 334.97 183.739 335.885 183.739C336.515 183.739 337.143 183.812 337.768 183.96C338.393 184.108 338.964 184.352 339.481 184.693C339.998 185.028 340.413 185.486 340.726 186.065C341.044 186.645 341.203 187.369 341.203 188.239V197H338.237V195.202H338.135C337.947 195.565 337.683 195.906 337.342 196.224C337.007 196.537 336.584 196.79 336.072 196.983C335.567 197.17 334.973 197.264 334.291 197.264ZM335.092 194.997C335.711 194.997 336.248 194.875 336.703 194.631C337.158 194.381 337.507 194.051 337.751 193.642C338.001 193.233 338.126 192.787 338.126 192.304V190.761C338.03 190.841 337.865 190.915 337.632 190.983C337.405 191.051 337.149 191.111 336.865 191.162C336.581 191.213 336.3 191.259 336.021 191.298C335.743 191.338 335.501 191.372 335.297 191.401C334.836 191.463 334.425 191.565 334.061 191.707C333.697 191.849 333.41 192.048 333.2 192.304C332.99 192.554 332.885 192.878 332.885 193.276C332.885 193.844 333.092 194.273 333.507 194.562C333.922 194.852 334.45 194.997 335.092 194.997ZM343.585 201.909V183.909H346.619V186.074H346.798C346.957 185.756 347.182 185.418 347.472 185.06C347.761 184.696 348.153 184.386 348.648 184.131C349.142 183.869 349.773 183.739 350.54 183.739C351.551 183.739 352.463 183.997 353.276 184.514C354.094 185.026 354.741 185.784 355.219 186.79C355.702 187.79 355.943 189.017 355.943 190.472C355.943 191.909 355.707 193.131 355.236 194.136C354.764 195.142 354.122 195.909 353.31 196.438C352.497 196.966 351.577 197.23 350.548 197.23C349.798 197.23 349.176 197.105 348.682 196.855C348.188 196.605 347.79 196.304 347.489 195.952C347.193 195.594 346.963 195.256 346.798 194.938H346.67V201.909H343.585ZM346.611 190.455C346.611 191.301 346.73 192.043 346.969 192.679C347.213 193.315 347.563 193.812 348.017 194.17C348.477 194.523 349.034 194.699 349.688 194.699C350.369 194.699 350.94 194.517 351.401 194.153C351.861 193.784 352.207 193.281 352.44 192.645C352.679 192.003 352.798 191.273 352.798 190.455C352.798 189.642 352.682 188.92 352.449 188.29C352.216 187.659 351.869 187.165 351.409 186.807C350.949 186.449 350.375 186.27 349.688 186.27C349.028 186.27 348.469 186.443 348.009 186.79C347.548 187.136 347.199 187.622 346.96 188.247C346.727 188.872 346.611 189.608 346.611 190.455Z" fill="black"/>
</svg>
